G75*
%MOIN*%
%OFA0B0*%
%FSLAX25Y25*%
%IPPOS*%
%LPD*%
%AMOC8*
5,1,8,0,0,1.08239X$1,22.5*
%
%ADD10C,0.07400*%
%ADD11OC8,0.15000*%
%ADD12OC8,0.05200*%
%ADD13C,0.02400*%
%ADD14C,0.01000*%
D10*
X0137524Y0066306D03*
X0147524Y0067306D03*
X0157524Y0066306D03*
X0167524Y0067306D03*
X0177524Y0066306D03*
X0187524Y0067306D03*
X0197524Y0066306D03*
X0207524Y0067306D03*
X0227524Y0066306D03*
X0237524Y0067306D03*
X0247524Y0066306D03*
X0257524Y0067306D03*
X0267524Y0066306D03*
X0277524Y0067306D03*
X0277524Y0257306D03*
X0267524Y0258306D03*
X0257524Y0257306D03*
X0247524Y0258306D03*
X0237524Y0257306D03*
X0227524Y0258306D03*
X0217524Y0257306D03*
X0207524Y0258306D03*
X0192524Y0257306D03*
X0182524Y0258306D03*
X0172524Y0257306D03*
X0162524Y0258306D03*
X0152524Y0257306D03*
X0142524Y0258306D03*
X0132524Y0257306D03*
X0122524Y0258306D03*
X0112524Y0257306D03*
X0102524Y0257306D03*
D11*
X0072524Y0017306D03*
X0167524Y0017306D03*
X0262524Y0017306D03*
X0352524Y0017306D03*
X0352524Y0037306D03*
X0352524Y0057306D03*
X0352524Y0077306D03*
X0352524Y0097306D03*
X0352524Y0117306D03*
X0262524Y0112306D03*
X0167524Y0112306D03*
X0072524Y0112306D03*
X0072524Y0207306D03*
X0167524Y0207306D03*
X0262524Y0207306D03*
X0352524Y0207306D03*
X0352524Y0297306D03*
X0262524Y0297306D03*
X0167524Y0297306D03*
X0072524Y0297306D03*
D12*
X0092524Y0272306D03*
X0122524Y0272306D03*
X0132524Y0272306D03*
X0162524Y0272306D03*
X0182524Y0242306D03*
X0192524Y0242306D03*
X0207524Y0242306D03*
X0217524Y0242306D03*
X0227524Y0242306D03*
X0237524Y0242306D03*
X0267524Y0237306D03*
X0267524Y0222306D03*
X0297524Y0222306D03*
X0297524Y0237306D03*
X0307524Y0272306D03*
X0277524Y0272306D03*
X0257524Y0272306D03*
X0227524Y0272306D03*
X0172524Y0227306D03*
X0157524Y0237306D03*
X0142524Y0227306D03*
X0127524Y0237306D03*
X0182524Y0212306D03*
X0192524Y0212306D03*
X0207524Y0212306D03*
X0217524Y0212306D03*
X0227524Y0212306D03*
X0237524Y0212306D03*
X0287524Y0067306D03*
X0297524Y0052306D03*
X0287524Y0042306D03*
X0277524Y0032306D03*
X0267524Y0052306D03*
X0257524Y0042306D03*
X0247524Y0032306D03*
X0237524Y0027306D03*
X0227524Y0022306D03*
X0227524Y0052306D03*
X0237524Y0057306D03*
X0317524Y0067306D03*
D13*
X0318124Y0067606D02*
X0322624Y0067606D01*
X0352324Y0097306D01*
X0352324Y0118006D02*
X0298324Y0172006D01*
X0298324Y0221506D01*
X0298324Y0236806D02*
X0323524Y0236806D01*
X0352324Y0208006D01*
X0277624Y0257506D02*
X0277624Y0271906D01*
X0267524Y0258306D02*
X0267724Y0257506D01*
X0267724Y0237706D01*
X0256824Y0232306D02*
X0247924Y0251206D01*
X0247924Y0257506D01*
X0247524Y0258306D01*
X0257524Y0257306D02*
X0257824Y0257506D01*
X0257824Y0271906D01*
X0257524Y0272306D01*
X0238024Y0272806D02*
X0262524Y0297306D01*
X0238024Y0272806D02*
X0228124Y0272806D01*
X0227524Y0272306D01*
X0227524Y0258306D02*
X0228124Y0257506D01*
X0228124Y0243106D01*
X0227524Y0242306D01*
X0218224Y0243106D02*
X0217524Y0242306D01*
X0218224Y0243106D02*
X0218224Y0256606D01*
X0217524Y0257306D01*
X0207524Y0258306D02*
X0207424Y0257506D01*
X0207424Y0243106D01*
X0207524Y0242306D01*
X0193024Y0243106D02*
X0192524Y0242306D01*
X0193024Y0243106D02*
X0193024Y0256606D01*
X0192524Y0257306D01*
X0183124Y0257506D02*
X0182524Y0258306D01*
X0183124Y0257506D02*
X0183124Y0243106D01*
X0182524Y0242306D01*
X0173224Y0256606D02*
X0173224Y0227806D01*
X0172524Y0227306D01*
X0157524Y0237306D02*
X0157024Y0237706D01*
X0157024Y0252106D01*
X0152524Y0256606D01*
X0152524Y0257306D01*
X0162424Y0258406D02*
X0162424Y0271906D01*
X0162524Y0272306D01*
X0172524Y0257306D02*
X0173224Y0256606D01*
X0142524Y0258306D02*
X0141724Y0262506D01*
X0127324Y0266906D01*
X0122824Y0271906D01*
X0122524Y0272306D01*
X0132524Y0272306D02*
X0132724Y0272806D01*
X0142624Y0272806D01*
X0166924Y0297106D01*
X0127524Y0237306D02*
X0127324Y0236806D01*
X0102124Y0231806D01*
X0073324Y0208006D01*
X0142624Y0226906D02*
X0142524Y0227306D01*
X0142624Y0226906D02*
X0148024Y0226906D01*
X0166924Y0208006D01*
X0182224Y0211606D02*
X0182524Y0212306D01*
X0182224Y0211606D02*
X0182224Y0188906D01*
X0105924Y0112606D01*
X0073324Y0112606D01*
X0122524Y0089906D02*
X0122524Y0052506D01*
X0166924Y0018106D01*
X0228124Y0021706D02*
X0258724Y0021706D01*
X0262324Y0018106D01*
X0247924Y0032506D02*
X0247924Y0065806D01*
X0257824Y0066706D02*
X0257824Y0042406D01*
X0267724Y0052306D02*
X0267724Y0065806D01*
X0277624Y0067606D02*
X0287524Y0067606D01*
X0297524Y0052306D02*
X0328024Y0052306D01*
X0352324Y0076606D01*
X0352324Y0056806D02*
X0337924Y0042406D01*
X0287524Y0042406D01*
X0277624Y0032506D02*
X0347824Y0032506D01*
X0352324Y0037006D01*
X0343324Y0027106D02*
X0352324Y0018106D01*
X0343324Y0027106D02*
X0238024Y0027106D01*
X0228124Y0052306D02*
X0228124Y0065806D01*
X0238024Y0066706D02*
X0238024Y0057706D01*
X0262324Y0112606D02*
X0228124Y0146806D01*
X0228124Y0211606D01*
X0227524Y0212306D01*
X0237524Y0212306D02*
X0238024Y0211606D01*
X0258724Y0211606D01*
X0262324Y0208006D01*
X0266824Y0222406D02*
X0256824Y0232306D01*
X0238024Y0243106D02*
X0237524Y0242306D01*
X0238024Y0243106D02*
X0238024Y0256606D01*
X0237524Y0257306D01*
X0217524Y0212306D02*
X0217324Y0211606D01*
X0217324Y0162106D01*
X0167524Y0112306D01*
X0122524Y0089906D02*
X0207424Y0184806D01*
X0207424Y0211606D01*
X0207524Y0212306D01*
X0192524Y0212306D02*
X0192124Y0211606D01*
X0192124Y0182206D01*
X0073324Y0053406D01*
X0073324Y0018106D01*
X0092224Y0272806D02*
X0092224Y0278206D01*
X0073324Y0297106D01*
X0308224Y0272806D02*
X0328024Y0272806D01*
X0352524Y0297306D01*
D14*
X0308224Y0272806D02*
X0307524Y0272306D01*
X0277624Y0271906D02*
X0277524Y0272306D01*
X0277624Y0257506D02*
X0277524Y0257306D01*
X0267724Y0237706D02*
X0267524Y0237306D01*
X0266824Y0222406D02*
X0267524Y0222306D01*
X0262324Y0208006D02*
X0262524Y0207306D01*
X0297524Y0222306D02*
X0298324Y0221506D01*
X0298324Y0236806D02*
X0297524Y0237306D01*
X0352324Y0208006D02*
X0352524Y0207306D01*
X0352324Y0118006D02*
X0352524Y0117306D01*
X0352324Y0097306D02*
X0352524Y0097306D01*
X0352524Y0077306D02*
X0352324Y0076606D01*
X0352524Y0057306D02*
X0352324Y0056806D01*
X0352524Y0037306D02*
X0352324Y0037006D01*
X0352324Y0018106D02*
X0352524Y0017306D01*
X0318124Y0067606D02*
X0317524Y0067306D01*
X0287524Y0067306D02*
X0287524Y0067606D01*
X0277624Y0067606D02*
X0277524Y0067306D01*
X0267724Y0065806D02*
X0267524Y0066306D01*
X0257824Y0066706D02*
X0257524Y0067306D01*
X0247924Y0065806D02*
X0247524Y0066306D01*
X0238024Y0066706D02*
X0237524Y0067306D01*
X0228124Y0065806D02*
X0227524Y0066306D01*
X0237524Y0057306D02*
X0238024Y0057706D01*
X0228124Y0052306D02*
X0227524Y0052306D01*
X0247524Y0032306D02*
X0247924Y0032506D01*
X0238024Y0027106D02*
X0237524Y0027306D01*
X0228124Y0021706D02*
X0227524Y0022306D01*
X0257524Y0042306D02*
X0257824Y0042406D01*
X0267524Y0052306D02*
X0267724Y0052306D01*
X0287524Y0042406D02*
X0287524Y0042306D01*
X0277624Y0032506D02*
X0277524Y0032306D01*
X0262324Y0018106D02*
X0262524Y0017306D01*
X0167524Y0017306D02*
X0166924Y0018106D01*
X0073324Y0018106D02*
X0072524Y0017306D01*
X0072524Y0112306D02*
X0073324Y0112606D01*
X0072524Y0207306D02*
X0073324Y0208006D01*
X0092524Y0272306D02*
X0092224Y0272806D01*
X0073324Y0297106D02*
X0072524Y0297306D01*
X0162424Y0258406D02*
X0162524Y0258306D01*
X0166924Y0297106D02*
X0167524Y0297306D01*
X0166924Y0208006D02*
X0167524Y0207306D01*
X0262324Y0112606D02*
X0262524Y0112306D01*
M02*
