%
M48
M72
T01C0.03200
T02C0.04000
T03C0.04400
%
T01
X227524Y22306
X237524Y27306
X247524Y32306
X257524Y42306
X267524Y52306
X287524Y42306
X297524Y52306
X287524Y67306
X317524Y67306
X277524Y32306
X237524Y57306
X227524Y52306
X227524Y212306
X237524Y212306
X217524Y212306
X207524Y212306
X192524Y212306
X182524Y212306
X172524Y227306
X157524Y237306
X142524Y227306
X127524Y237306
X132524Y272306
X122524Y272306
X92524Y272306
X162524Y272306
X182524Y242306
X192524Y242306
X207524Y242306
X217524Y242306
X227524Y242306
X237524Y242306
X267524Y237306
X267524Y222306
X297524Y222306
X297524Y237306
X307524Y272306
X277524Y272306
X257524Y272306
X227524Y272306
T02
X227524Y258306
X237524Y257306
X247524Y258306
X257524Y257306
X267524Y258306
X277524Y257306
X217524Y257306
X207524Y258306
X192524Y257306
X182524Y258306
X172524Y257306
X162524Y258306
X152524Y257306
X142524Y258306
X132524Y257306
X122524Y258306
X112524Y257306
X102524Y257306
X137524Y66306
X147524Y67306
X157524Y66306
X167524Y67306
X177524Y66306
X187524Y67306
X197524Y66306
X207524Y67306
X227524Y66306
X237524Y67306
X247524Y66306
X257524Y67306
X267524Y66306
X277524Y67306
T03
X72524Y17306
X167524Y17306
X262524Y17306
X352524Y17306
X352524Y37306
X352524Y57306
X352524Y77306
X352524Y97306
X352524Y117306
X262524Y112306
X167524Y112306
X72524Y112306
X72524Y207306
X167524Y207306
X262524Y207306
X352524Y207306
X352524Y297306
X262524Y297306
X167524Y297306
X72524Y297306
M30
